<svg xmlns="http://www.w3.org/2000/svg" width="30.801" height="23.957" viewBox="0 0 30.801 23.957"><path d="M25.138,42.657s.406,1.989.5,2.406H23.85c.176-.476.856-2.326.856-2.326-.011.016.176-.487.283-.8l.15.717ZM30.8,34.567V53.39a2.567,2.567,0,0,1-2.567,2.567H2.567A2.567,2.567,0,0,1,0,53.39V34.567A2.567,2.567,0,0,1,2.567,32H28.234A2.567,2.567,0,0,1,30.8,34.567ZM8.155,48l3.38-8.3H9.262l-2.1,5.668-.23-1.15L6.182,40.4a.894.894,0,0,0-.973-.7H1.749l-.037.166a8.486,8.486,0,0,1,2.257.914L5.882,48Zm5.048.011L14.55,39.7H12.4l-1.342,8.31H13.2Zm7.481-2.717c.011-.946-.567-1.668-1.8-2.262-.754-.38-1.214-.636-1.214-1.027.011-.353.39-.717,1.235-.717a3.685,3.685,0,0,1,1.6.315l.193.091.294-1.8a5.34,5.34,0,0,0-1.925-.353c-2.123,0-3.615,1.134-3.626,2.749-.016,1.192,1.069,1.856,1.882,2.257.829.406,1.112.674,1.112,1.032-.011.556-.674.813-1.289.813a4.284,4.284,0,0,1-2.016-.444l-.283-.134-.3,1.866a6.561,6.561,0,0,0,2.4.444c2.257.005,3.727-1.112,3.743-2.834Zm7.551,2.716L26.5,39.7H24.839a1.058,1.058,0,0,0-1.123.69l-3.192,7.62H22.78s.369-1.027.449-1.246h2.759c.064.294.257,1.246.257,1.246Z" transform="translate(0 -32)"/></svg>