<svg xmlns="http://www.w3.org/2000/svg" width="43.313" height="38.5" viewBox="0 0 43.313 38.5"><defs><style>.a{fill:rgba(0,0,0,0.5);}</style></defs><path class="a" d="M21.656,0a9.474,9.474,0,0,0-9.475,9.475c0,4.23,6.192,11.941,8.565,14.74a1.186,1.186,0,0,0,1.82,0c2.372-2.8,8.565-10.509,8.565-14.74A9.474,9.474,0,0,0,21.656,0Zm0,12.633a3.158,3.158,0,1,1,3.158-3.158A3.158,3.158,0,0,1,21.656,12.633ZM1.513,16.238A2.407,2.407,0,0,0,0,18.472V37.3a1.2,1.2,0,0,0,1.65,1.117l10.381-4.725V16.161a22.772,22.772,0,0,1-1.6-3.491ZM21.656,27.045a3.593,3.593,0,0,1-2.745-1.275C17.433,24.026,15.86,22.039,14.437,20V33.687L28.875,38.5V20c-1.423,2.037-2.994,4.024-4.473,5.769A3.6,3.6,0,0,1,21.656,27.045ZM41.663,12.118,31.281,16.844V38.5L41.8,34.293a2.406,2.406,0,0,0,1.513-2.234V13.236a1.2,1.2,0,0,0-1.65-1.117Z"/></svg>