<svg xmlns="http://www.w3.org/2000/svg" width="22.201" height="27.324" viewBox="0 0 22.201 27.324"><defs><style>.a{fill:#fff;}</style></defs><path class="a" d="M11.095.81a65.25,65.25,0,0,1,.859,6.874,5.627,5.627,0,0,1-3.677,5.582l.688,12.707a1.284,1.284,0,0,1-1.281,1.35H4.269a1.284,1.284,0,0,1-1.281-1.35l.688-12.707A5.625,5.625,0,0,1,0,7.683,65.056,65.056,0,0,1,.859.81C1.03-.274,3.277-.29,3.415.869V8.4c.069.181.806.171.854,0C4.344,7.054,4.691.975,4.7.837c.176-1.11,2.386-1.11,2.556,0C7.263.981,7.6,7.054,7.68,8.4c.048.171.79.181.854,0V.869C8.672-.284,10.924-.274,11.095.81Zm6.361,15.247-.8,9.878a1.28,1.28,0,0,0,1.275,1.388H20.92A1.278,1.278,0,0,0,22.2,26.042V1.279A1.281,1.281,0,0,0,20.92,0C16.517,0,9.1,9.525,17.456,16.057Z" transform="translate(0 0.001)"/></svg>