<svg xmlns="http://www.w3.org/2000/svg" width="65.456" height="65.456" viewBox="0 0 65.456 65.456"><defs><style>.a{fill:#002f5a;}</style></defs><path class="a" d="M32.728,8A32.728,32.728,0,1,0,65.456,40.728,32.722,32.722,0,0,0,32.728,8Zm0,12.669A11.613,11.613,0,1,1,21.115,32.282,11.613,11.613,0,0,1,32.728,20.669Zm0,45.4a25.289,25.289,0,0,1-19.333-9,14.714,14.714,0,0,1,13-7.892,3.229,3.229,0,0,1,.937.145,17.473,17.473,0,0,0,5.4.911,17.407,17.407,0,0,0,5.4-.911,3.229,3.229,0,0,1,.937-.145,14.714,14.714,0,0,1,13,7.892A25.289,25.289,0,0,1,32.728,66.066Z" transform="translate(0 -8)"/></svg>