<svg xmlns="http://www.w3.org/2000/svg" width="18" height="18" viewBox="0 0 18 18"><defs><style>.a{fill:#999;}</style></defs><path class="a" d="M11.812,1.125a5.063,5.063,0,1,1-1.887,9.762L8.437,12.375H6.75v2.25H4.5v2.25H1.125V14.063L7.113,8.074a5.065,5.065,0,0,1,4.7-6.949m0-1.125A6.192,6.192,0,0,0,5.829,7.768L.247,13.349a.844.844,0,0,0-.247.6v3.21A.844.844,0,0,0,.844,18H4.781a.844.844,0,0,0,.844-.844V15.75H7.031a.844.844,0,0,0,.844-.844V13.5h.679a.844.844,0,0,0,.6-.247l1.082-1.082A6.188,6.188,0,1,0,11.812,0ZM13.5,3.8a.7.7,0,1,1-.7.7.7.7,0,0,1,.7-.7m0-.984A1.688,1.688,0,1,0,15.187,4.5,1.687,1.687,0,0,0,13.5,2.813Z"/></svg>