<svg xmlns="http://www.w3.org/2000/svg" width="15.75" height="18" viewBox="0 0 15.75 18"><defs><style>.a{fill:#999;}</style></defs><path class="a" d="M11.025,10.125c-1.009,0-1.494.563-3.15.563s-2.138-.562-3.15-.562A4.726,4.726,0,0,0,0,14.85v1.463A1.688,1.688,0,0,0,1.688,18H14.063a1.688,1.688,0,0,0,1.688-1.687V14.85A4.726,4.726,0,0,0,11.025,10.125Zm3.6,6.188a.564.564,0,0,1-.563.563H1.688a.564.564,0,0,1-.563-.562V14.85a3.6,3.6,0,0,1,3.6-3.6c.689,0,1.375.563,3.15.563s2.461-.562,3.15-.562a3.6,3.6,0,0,1,3.6,3.6ZM7.875,9a4.5,4.5,0,1,0-4.5-4.5A4.5,4.5,0,0,0,7.875,9Zm0-7.875A3.375,3.375,0,1,1,4.5,4.5,3.38,3.38,0,0,1,7.875,1.125Z"/></svg>